<?xml version="1.0" encoding="UTF-8" standalone="no"?>
<svg id="svg3336" xmlns:rdf="http://www.w3.org/1999/02/22-rdf-syntax-ns#" xmlns="http://www.w3.org/2000/svg" height="216" width="144" version="1.1" xmlns:cc="http://creativecommons.org/ns#" xmlns:dc="http://purl.org/dc/elements/1.1/" viewBox="0 0 144 216">
 <g id="layer1" transform="translate(0 -836.36)">
  <path id="path3352" stroke-linejoin="round" d="m14.787 840.85c-0.94858 2.4632-1.4711 5.0605-1.8476 7.668-0.55034 3.7216-0.04892 7.4411 0.84217 11.059 1.1745 4.3734 3.7303 8.0771 6.6427 11.438 2.7357 3.0182 5.9021 5.6904 9.5089 7.5799 0.77095 0.40389 1.574 0.74143 2.3611 1.1121 4.3467 1.7469 8.9694 2.9298 13.647 3.2402 1.0173 0.0675 2.0381 0.0611 3.0571 0.0917-1.6703-0.0262-3.3702 0.2397-5.0109-0.0787-1.0508-0.20386 2.1347-0.15545 3.1983-0.27304 1.0699-0.1183 2.1373-0.26248 3.2-0.43439 3.2198-0.52084 6.2738-1.3986 9.3807-2.3771 5.7355-1.8935 11.049-4.719 15.918-8.2987 3.9347-2.8721 6.7366-6.0901 9.208-10.278 1.5855-3.078 2.3721-5.4403 1.7011-8.8881-0.94878-2.8509-2.7203-3.5703-5.4258-4.263-0.54696-0.0579-1.0915-0.14811-1.6409-0.17365-0.62919-0.0292-2.5191-0.008-1.8895 0.01 2.0792 0.0593 4.1707-0.10874 6.239 0.1146 0.77025 0.0832-1.5402 0.17703-2.3036 0.31027-2.0788 0.36289-3.038 0.67658-5.097 1.2359-6.0349 1.7564-11.58 4.2864-17.003 7.465-3.8594 2.3394-7.5747 4.9382-10.972 7.931-2.2227 1.9582-2.9626 2.7847-5.05 4.9032-5.1786 5.4066-9.6261 11.462-13.744 17.718-4.117 6.3884-7.0188 13.414-9.4908 20.588-2.4273 7.0163-3.7934 14.338-4.7147 21.695-0.43653 4.5936-0.42621 9.2349 0.07418 13.824 0.26024 2.3865 0.58866 4.0287 1.0035 6.3862 1.331 6.166 3.6651 12.056 6.5372 17.64 1.8796 3.4146 4.1676 6.6186 6.8527 9.4337 1.6788 1.7601 2.2471 2.1471 4.0988 3.6948 4.2347 3.3906 9.0656 5.7568 14.101 7.636 0.86147 0.24798 1.7116 0.54068 2.5844 0.74395 1.775 0.41339 3.5284 0.62829 5.3468 0.69896 0.92261 0.0358 3.6916 0.0467 2.7699-0.008-1.7744-0.10476-3.5879 0.21141-5.3305-0.14343-0.95483-0.19444 1.9341-0.23419 2.9011-0.35127 5.9234-0.93135 11.545-3.0684 16.997-5.5176 5.1995-2.4044 9.9116-5.6927 14.535-9.0604 3.9278-2.9884 7.4796-6.4216 11.033-9.8442 2.1945-2.2028 4.5126-4.2728 6.7889-6.3872 3.2456-3.0777 8.1213-3.7052 12.483-1.673 1.6288 1.2103 2.2961 3.2858 2.9709 5.1295 1.353 4.2669 2.2933 8.6603 2.9876 13.083 0.92729 6.2789 0.75408 12.607 0.1679 18.903-0.67796 7.254-2.4064 14.334-4.5601 21.267-1.4836 4.4328-3.3755 8.7265-5.9408 12.632-1.4828 2.2573-2.2797 3.1367-3.9702 5.2259-3.3568 3.842-7.2633 7.1754-11.65 9.7528-0.85212 0.5007-1.7386 0.9387-2.6079 1.4081-5.4031 2.6982-10.87 3.7934-16.816 4.3053-6.4959 0.1768-13.036 0.3473-19.464-0.7405-2.4675-0.4177-2.9983-0.6163-5.4073-1.2536-3.2459-0.939-6.5445-1.9189-9.4777-3.6608-1.4754-0.8761-2.2545-1.5555-3.5919-2.6054-3.1566-2.7096-4.5689-5.2776-5.3038-9.3531-0.17536-2.839 1.0189-5.4251 3.1681-7.25 0.47712-0.4051 1.0187-0.7251 1.5281-1.0878 4.5855-2.583 9.8838-3.2139 15.015-3.7914 7.8431-0.637 15.708-0.8029 23.541-1.5648 9.6056-0.9385 19.043-2.9305 28.355-5.4387 9.1937-2.6373 18.161-5.9842 27.116-9.3377 0 0 7.6741 0.9513 7.6741 0.9513v0c-8.9494 3.3301-17.886 6.7153-27.047 9.4175-9.247 2.5724-18.626 4.6192-28.182 5.596-7.7589 0.8179-15.551 0.9942-23.328 1.5907-5.0055 0.524-10.152 1.109-14.711 3.423-0.49742 0.3112-1.0248 0.5781-1.4923 0.9339-2.0269 1.5427-3.2577 3.8207-3.1224 6.4015 0.70905 3.8889 2.1455 6.1903 5.169 8.7271 1.3959 1.0604 1.989 1.5843 3.5343 2.4535 2.9252 1.6457 6.1768 2.5835 9.3798 3.4863 2.7157 0.6719 5.3852 1.2156 8.1694 1.5148 0.92899 0.1006 3.7177 0.1131 2.7923 0.2431-1.7605 0.2463-3.5546 0.043-5.3305 0.112-0.94171 0.037 1.8848-0.012 2.8271-0.015 2.1442-0.1492 3.5223-0.1949 5.65-0.5448 3.8385-0.6312 7.6068-1.7941 11.144-3.422 0.86781-0.4489 1.7529-0.865 2.6034-1.3468 4.3831-2.4827 8.2934-5.7319 11.679-9.4784 1.6091-1.9483 2.5638-3.0093 3.9844-5.1117 2.5841-3.8246 4.4988-8.0513 5.9845-12.424 2.1607-6.8655 3.8745-13.895 4.5103-21.09 0.55271-6.228 0.68838-12.491-0.30124-18.69-0.73709-4.3719-1.7323-8.7156-3.2151-12.894-0.65925-1.5829-1.316-3.6736-3.0606-4.3139-3.1774-0.28436-1.562-0.11967 7.4381-0.17328 0.20614-0.001-0.41616 0.0179-0.61364 0.0779-0.79859 0.24213-1.4575 0.85947-2.1026 1.3543-2.337 2.1119-4.7512 4.1378-6.9993 6.3488-3.5957 3.4498-7.2028 6.8888-11.136 9.9492-4.6513 3.4056-9.3908 6.7373-14.598 9.2256-5.4648 2.4991-11.085 4.7102-17.02 5.7603-6.3564 0.90676-2.6219 0.49682-13.936 0.5982-3.6673 0.0329-7.3016-0.45024-10.762-1.7246-5.0515-1.9726-9.8983-4.4341-14.118-7.9206-0.69811-0.60554-1.4188-1.1854-2.0943-1.8166-3.571-3.3365-6.4879-7.3459-8.8222-11.648-2.8417-5.6835-5.21-11.64-6.5186-17.891-0.41315-2.4197-0.7264-4.0153-0.97899-6.4661-0.47888-4.6465-0.47061-9.346-0.011291-13.993 0.93049-7.413 2.2956-14.793 4.7309-21.867 2.4856-7.2371 5.3989-14.328 9.5167-20.792 4.1042-6.3062 8.5581-12.399 13.706-17.881 2.0558-2.125 2.8432-3.0132 5.0331-4.9842 3.3833-3.0452 7.0987-5.6864 10.961-8.0679 2.3973-1.4517 3.1799-1.9984 5.6821-3.2281 3.6183-1.7782 7.4155-3.2065 11.235-4.4657 2.0631-0.60519 5.1722-1.6448 7.3117-1.7367 3.4761-0.14936 6.9573-0.13716 10.436-0.15798 1.8295-0.0111 1.914 0.0777 3.6373 0.37573 3.0502 0.99608 4.5758 2.0022 5.5368 5.2184 0.6111 3.6687-0.15161 6.2364-1.8582 9.5015-2.4779 4.2593-5.365 7.6986-9.3565 10.609-4.978 3.7247-10.172 6.5258-16.045 8.5578-2.3274 0.76197-3.8381 1.3095-6.2226 1.8781-6.8325 1.6292-13.823 1.7649-20.821 1.5107-1.0292-0.0497-2.0608-0.0615-3.0875-0.1491-4.7247-0.4026-9.3833-1.6519-13.745-3.5093-0.79456-0.39404-1.6062-0.75459-2.3837-1.1821-3.6323-1.9973-6.814-4.7539-9.5709-7.8526-2.944-3.5057-5.5294-7.3332-6.7282-11.835-0.89737-3.7254-1.4418-7.5537-0.91656-11.386 0.35114-2.6518 0.88167-5.2647 1.6291-7.8326l8.7294 0.28463z" stroke="#008000" stroke-linecap="round" stroke-width="8.266" fill="#008000"/>
 </g>
</svg>
